<svg width="200" height="200" xmlns="http://www.w3.org/2000/svg">
  <defs>
    <linearGradient id="gearGradient" x1="0%" y1="0%" x2="100%" y2="0%">
      <stop offset="0%" stop-color="#003366" />
      <stop offset="100%" stop-color="#007bff" />
    </linearGradient>
  </defs>
  <g fill="url(#gearGradient)">
    <circle cx="100" cy="100" r="80" />
    <path d="M100 20 L100 80 A 60 60 0 0 1 160 80 L160 20 Z" />
    <path d="M100 180 L100 120 A 60 60 0 0 0 160 120 L160 180 Z" />
    <path d="M40 100 L80 100 A 40 40 0 0 1 80 60 L40 60 Z" />
    <path d="M160 100 L200 100 A 40 40 0 0 0 200 60 L160 60 Z" />
  </g>
  <g fill="#ff9900">
    <ellipse cx="100" cy="100" rx="30" ry="20" />
    <path d="M100 50 L120 70 A 20 20 0 0 1 130 50 L100 50 Z" />
  </g>
</svg>